<svg xmlns="http://www.w3.org/2000/svg" width="21.819" height="20" viewBox="0 0 21.819 20"><defs><style>.a{opacity:0.5;}.b{fill:#fff;}</style></defs><g class="a" transform="translate(0 -1)"><path class="b" d="M19.766,9.182H7.273a.909.909,0,1,1,0-1.818H20.909a.909.909,0,0,1,.886,1.113l-2.077,9A4.545,4.545,0,0,1,15.289,21H5.806a3.636,3.636,0,0,1-3.543-2.819L.023,8.477A.909.909,0,0,1,.909,7.364h2.2L6.483,1.458a.909.909,0,1,1,1.579.9L4.426,8.724a.909.909,0,0,1-.789.458H2.052l1.982,8.591a1.818,1.818,0,0,0,1.772,1.409h9.483a2.727,2.727,0,0,0,2.657-2.114Zm-2.59-4.043a.909.909,0,1,1-1.626.813L13.732,2.316A.909.909,0,0,1,15.358,1.5Zm-1.74,11.494a.909.909,0,0,1-1.783-.357l.909-4.545a.909.909,0,0,1,1.783.357Zm-3.619-.178a.909.909,0,0,1-1.818,0V11.909a.909.909,0,0,1,1.818,0Zm-3.654-.178a.909.909,0,1,1-1.783.357l-.909-4.545a.909.909,0,0,1,1.783-.357Z" transform="translate(0 0)"/></g></svg>