<svg xmlns="http://www.w3.org/2000/svg" width="20" height="20" viewBox="0 0 20 20">
  <path id="excel_ic" d="M14,2,2,4V20l12,2Zm1,2V7h2V8H15v2h2v1H15v2h2v1H15v2h2v1H15v3h5a2,2,0,0,0,2-2V6a2,2,0,0,0-2-2Zm3,3h2V8H18ZM4.219,8H6.281l1.063,2.406a4.232,4.232,0,0,1,.219.656h.031c.039-.154.133-.38.25-.687L9.031,8h1.906l-2.25,3.969L11,16H8.969L7.688,13.406a2.422,2.422,0,0,1-.156-.562H7.5a4.661,4.661,0,0,1-.156.563L6.031,16H4l2.406-4ZM18,10h2v1H18Zm0,3h2v1H18Zm0,3h2v1H18Z" transform="translate(-2 -2)" fill="#b2b2b2"/>
</svg>
