<svg width="10" height="11" viewBox="0 0 10 11" fill="none" xmlns="http://www.w3.org/2000/svg">
<path fill-rule="evenodd" clip-rule="evenodd" d="M2.03002 1.43C2.81771 0.642305 3.88605 0.199783 5.00002 0.199783C6.11398 0.199783 7.18232 0.642305 7.97002 1.43C8.75771 2.21769 9.20023 3.28603 9.20023 4.4C9.20023 5.51396 8.75771 6.5823 7.97002 7.37L5.00002 10.34L2.03002 7.37C1.63996 6.97999 1.33056 6.51696 1.11946 6.00737C0.908364 5.49777 0.799713 4.95159 0.799713 4.4C0.799713 3.84841 0.908364 3.30222 1.11946 2.79263C1.33056 2.28303 1.63996 1.82001 2.03002 1.43ZM5.00002 5.6C5.31828 5.6 5.6235 5.47357 5.84854 5.24853C6.07359 5.02348 6.20002 4.71826 6.20002 4.4C6.20002 4.08174 6.07359 3.77651 5.84854 3.55147C5.6235 3.32643 5.31828 3.2 5.00002 3.2C4.68176 3.2 4.37653 3.32643 4.15149 3.55147C3.92644 3.77651 3.80002 4.08174 3.80002 4.4C3.80002 4.71826 3.92644 5.02348 4.15149 5.24853C4.37653 5.47357 4.68176 5.6 5.00002 5.6Z" fill="#f44336"/>
</svg>
