<svg xmlns="http://www.w3.org/2000/svg" width="22" height="22" viewBox="0 0 22 22"><defs><style>.a{opacity:0.5;}.b{fill:#fff;}</style></defs><g class="a"><path class="b" d="M20.137,17.127A.917.917,0,0,1,18.615,16.1a9.164,9.164,0,1,0-2.49,2.5.917.917,0,0,1,1.027,1.519,11,11,0,1,1,2.985-2.993ZM11,11a3.667,3.667,0,1,1,3.667-3.667A3.667,3.667,0,0,1,11,11Zm0-1.833A1.833,1.833,0,1,0,9.167,7.333,1.833,1.833,0,0,0,11,9.167Zm5.5,6.417a.917.917,0,0,1-1.833,0,1.833,1.833,0,0,0-1.833-1.833H9.167a1.833,1.833,0,0,0-1.833,1.833.917.917,0,0,1-1.833,0,3.667,3.667,0,0,1,3.667-3.667h3.667A3.667,3.667,0,0,1,16.5,15.583Z"/></g></svg>