<svg xmlns="http://www.w3.org/2000/svg" width="22" height="22" viewBox="0 0 22 22"><defs><style>.a{fill:none;}.b{fill:#ea4941;}</style></defs><rect class="a" width="22" height="22"/><g transform="translate(1.833 3.667)"><path class="b" d="M18.592,4H3.742A1.666,1.666,0,0,0,2,5.65V8.492c0,.275.275.458.55.55.183.092.275.092.458.183a2.374,2.374,0,0,1,0,4.217c-.183.092-.275.092-.458.183a.513.513,0,0,0-.55.458v2.842a1.666,1.666,0,0,0,1.742,1.65h14.85a1.723,1.723,0,0,0,1.742-1.65V15h0a.55.55,0,0,0-1.1,0h0v1.375a1.137,1.137,0,0,1-1.192,1.1H4.292a1.2,1.2,0,0,1-1.192-1.1V14.45a3.392,3.392,0,0,0,0-6.417V6.2A1.137,1.137,0,0,1,4.292,5.1h13.75a1.2,1.2,0,0,1,1.192,1.1v6.967h0a.55.55,0,0,0,1.1,0h0V5.65A1.666,1.666,0,0,0,18.592,4Z" transform="translate(-2 -4)"/><path class="b" d="M12.114,15.908a.792.792,0,0,1-.55-.275L7.9,9.216a.739.739,0,0,1,.275-.825A.6.6,0,0,1,9,8.575l3.117,5.5,3.117-5.5a.6.6,0,0,1,1.008.642l-3.667,6.417c0,.183-.275.275-.458.275Z" transform="translate(-2.489 -4.358)"/></g></svg>