<svg xmlns="http://www.w3.org/2000/svg" width="35.514" height="58.547" viewBox="0 0 35.514 58.547">
  <g id="vsmart_logo" transform="translate(-3133.261 -1638.842)">
    <path id="Union_16" data-name="Union 16" d="M-1753.135-5665.028a14.893,14.893,0,0,0-.578-3.67,34.511,34.511,0,0,0-3.435-8.126c-1.575-2.665-7.72-12.343-7.776-12.429-.827-1.376-5.191-8.739-2.219-14.977.082-.169.167-.336.255-.5h0a9.43,9.43,0,0,1,3.177-3.57,3.5,3.5,0,0,0-.217.354,4.274,4.274,0,0,0-.406,2.864,25.7,25.7,0,0,0,3.269,8.137s.758,1.249.871,1.433l7.434,11.774c.113.178.221.36.326.545l.095.172c.079.144.155.287.228.434.062.125.123.252.182.379.03.067.062.135.092.2a15.1,15.1,0,0,1,.861,2.551,17.6,17.6,0,0,1,.409,2.446c.09.621.174,1.21.174,1.21l.713-2.369a13.5,13.5,0,0,0,.574-3.892,13.474,13.474,0,0,0-1.839-6.8,12.347,12.347,0,0,0-.58-1.094l-4.578-7.108-2.1-3.242c-.782-1.3-4.37-7.78-2.261-13.752h0a8.252,8.252,0,0,1,5.985-5.851,6.684,6.684,0,0,0-1.46,1.332,5.242,5.242,0,0,0-.469,5.132,33.808,33.808,0,0,0,2.677,5.472c.03.047,8.079,13.36,8.079,13.36h0c.655,1.035,6.239,10.352,1.039,18.531l-2.62,4.177a19.877,19.877,0,0,1-1.118,1.782h0l-5.024,8.007A17.7,17.7,0,0,0-1753.135-5665.028Zm12.971-24.425a6.469,6.469,0,0,0-.508-.973l-1.668-2.393c-2.689-3.953-4.15-7.255-2.974-11.452,1.026-3.668,4.9-4.557,7.476-3.646a3.052,3.052,0,0,0-2.369,1.565s-.011.021-.029.06-.047.106-.069.164a5.441,5.441,0,0,0,.271,3.807,25.7,25.7,0,0,0,2.565,4.114l2.1,2.953c2.237,3.137,2.278,6.381-.049,10.471l-1.121,1.743-1.48,2.3-.271.42c-.09.139-.179.28-.273.423l-1.417,2.2c-.021.032-.042.064-.063.1l-1.075,1.674c-.1.162-.208.32-.307.477l-.241.376c-.047.075-.095.146-.141.218l-.119.186c-.053.082-.1.161-.154.238l-.382.593c-.069.109-.132.205-.187.29l-.1.164c-.014.021-.026.04-.037.059l-.108.165S-1737.666-5683.542-1740.163-5689.453Z" transform="translate(4902 7359.229)" fill="#e94940" stroke="rgba(0,0,0,0)" stroke-width="1"/>
  </g>
</svg>
