<svg xmlns="http://www.w3.org/2000/svg" width="125" height="125" viewBox="0 0 125 125">
  <g id="vsmart_round" transform="translate(-108 -115)">
    <circle id="Ellipse_133" data-name="Ellipse 133" cx="62.5" cy="62.5" r="62.5" transform="translate(108 115)" fill="#cc4b3d"/>
    <g id="Group_930" data-name="Group 930" transform="translate(-2987.833 -1503.099)">
      <path id="Path_1" data-name="Path 1" d="M3166.04,1675.516v0s-11.516-19.044-11.557-19.112a48.309,48.309,0,0,1-3.83-7.829c-1.255-3.476-.4-5.865.672-7.341a9.543,9.543,0,0,1,2.086-1.9,11.808,11.808,0,0,0-8.561,8.369h0c-3.018,8.542,2.115,17.813,3.232,19.674l3,4.636,6.548,10.17a17.488,17.488,0,0,1,.829,1.563,19.272,19.272,0,0,1,1.809,15.289l-1.02,3.388s-.119-.841-.248-1.73a25.353,25.353,0,0,0-.586-3.5,21.408,21.408,0,0,0-1.232-3.647c-.043-.1-.088-.193-.132-.289-.084-.181-.171-.363-.261-.543q-.156-.312-.325-.62l-.136-.246c-.15-.264-.3-.525-.465-.781l-10.634-16.842c-.163-.262-1.249-2.049-1.249-2.049a36.767,36.767,0,0,1-4.674-11.639,6.119,6.119,0,0,1,.582-4.1,4.732,4.732,0,0,1,.31-.505,13.488,13.488,0,0,0-4.544,5.106h0q-.19.349-.364.713c-4.252,8.922,1.99,19.454,3.175,21.424.079.123,8.87,13.967,11.124,17.778a49.32,49.32,0,0,1,4.912,11.625,21.261,21.261,0,0,1,.828,5.249,25.362,25.362,0,0,1-.345,4.181l7.186-11.453h0a28.155,28.155,0,0,0,1.6-2.55l3.749-5.975C3174.962,1690.324,3166.975,1677,3166.04,1675.516Z" transform="translate(0 0)" fill="#fff"/>
      <path id="Path_2" data-name="Path 2" d="M3366.322,1770.931l-3.01-4.222a36.954,36.954,0,0,1-3.67-5.887c-.9-2.531-.852-4.261-.387-5.446.031-.081.064-.159.1-.234.025-.055.041-.084.041-.085a4.366,4.366,0,0,1,3.387-2.239c-3.684-1.3-9.225-.03-10.693,5.216-1.683,6.005.408,10.728,4.254,16.383l2.385,3.424a9.267,9.267,0,0,1,.726,1.39c3.574,8.458-3.9,23.309-3.9,23.309l.154-.236.053-.083.15-.235q.118-.181.267-.414l.546-.848c.07-.11.145-.224.22-.341l.171-.265c.065-.1.133-.206.2-.313l.346-.538c.142-.221.289-.449.439-.682l1.539-2.393.09-.138,2.027-3.153c.134-.2.262-.406.39-.6l.388-.6,2.118-3.291,1.6-2.493C3369.582,1780.059,3369.521,1775.419,3366.322,1770.931Z" transform="translate(-185.564 -96.348)" fill="#fff"/>
    </g>
  </g>
</svg>
